<?xml version="1.0" standalone="no"?>
<!DOCTYPE svg PUBLIC "-//W3C//DTD SVG 20010904//EN"
 "http://www.w3.org/TR/2001/REC-SVG-20010904/DTD/svg10.dtd">
<svg version="1.0" xmlns="http://www.w3.org/2000/svg"
 width="700.000000pt" height="700.000000pt" viewBox="0 0 700.000000 700.000000"
 preserveAspectRatio="xMidYMid meet">
<metadata>
Created by potrace 1.14, written by Peter Selinger 2001-2017
</metadata>
<g transform="translate(0.000000,700.000000) scale(0.100000,-0.100000)"
fill="#000000" stroke="none">
<path d="M1939 6987 c-26 -20 -99 -79 -145 -117 -23 -19 -52 -44 -65 -55 -45
-37 -224 -189 -254 -216 -16 -14 -70 -62 -120 -105 -49 -43 -95 -83 -101 -89
-46 -42 -204 -187 -238 -218 -77 -72 -251 -245 -346 -344 -142 -147 -195 -205
-366 -402 -76 -88 -218 -264 -276 -340 l-26 -36 31 -13 c156 -67 597 -223 842
-298 119 -36 544 -149 594 -158 14 -2 69 -14 121 -26 52 -12 124 -28 160 -35
36 -7 108 -22 160 -33 52 -11 111 -23 130 -26 19 -3 71 -12 114 -21 44 -8 93
-18 110 -21 17 -3 81 -14 143 -24 61 -11 114 -20 117 -20 10 0 7 -20 -8 -53
-58 -129 -302 -860 -386 -1152 -37 -130 -115 -435 -124 -485 -4 -19 -8 -39
-10 -45 -2 -9 -7 -29 -22 -105 -1 -8 -9 -47 -18 -86 -19 -88 -82 -459 -91
-534 -4 -30 -8 -59 -8 -65 -1 -5 3 -9 8 -9 6 1 33 5 60 8 54 7 282 43 330 52
17 4 39 8 50 9 11 2 45 9 75 15 30 6 71 13 90 16 19 3 38 8 41 10 4 2 24 6 45
9 22 4 47 8 56 11 21 6 56 14 92 20 40 8 376 93 406 103 14 5 61 19 105 31
197 54 666 209 984 324 101 37 184 66 186 64 1 -2 14 -68 29 -148 14 -80 28
-158 31 -175 45 -245 137 -685 172 -820 8 -33 16 -67 18 -75 26 -125 193 -693
226 -765 5 -11 18 -47 28 -80 11 -33 31 -89 44 -125 54 -142 106 -277 119
-307 l14 -32 89 70 c266 208 587 493 819 725 132 132 413 435 532 573 16 18
40 46 54 61 14 15 36 40 49 56 14 16 52 61 85 100 34 39 70 82 81 95 11 13 43
51 70 84 28 33 55 66 62 75 7 8 30 37 52 65 l41 49 -5 311 c-4 290 -7 471 -20
1245 -3 168 -7 449 -10 625 -3 176 -7 451 -10 610 -3 160 -7 434 -10 610 -2
176 -7 466 -10 645 -3 179 -8 457 -10 619 -3 162 -6 296 -9 298 -4 4 -56 5
-1551 28 -181 3 -451 7 -600 10 -148 3 -427 7 -620 10 -192 3 -476 7 -630 10
-1430 25 -1559 25 -1576 12z"/>
</g>
</svg>
